<?xml version="1.0" encoding="utf-8"?>
<!-- Generator: Adobe Illustrator 17.1.0, SVG Export Plug-In . SVG Version: 6.00 Build 0)  -->
<!DOCTYPE svg PUBLIC "-//W3C//DTD SVG 1.1//EN" "http://www.w3.org/Graphics/SVG/1.1/DTD/svg11.dtd">
<svg version="1.1" xmlns="http://www.w3.org/2000/svg" xmlns:xlink="http://www.w3.org/1999/xlink" x="0px" y="0px"
	 viewBox="0 0 399 374.3" enable-background="new 0 0 399 374.3" xml:space="preserve">
<g id="レイヤー_2">
	<g>
		<linearGradient id="SVGID_1_" gradientUnits="userSpaceOnUse" x1="99.8238" y1="356.2715" x2="99.8238" y2="104.8926">
			<stop  offset="0" style="stop-color:#0084E9"/>
			<stop  offset="3.824052e-02" style="stop-color:#097CE9"/>
			<stop  offset="0.1018" style="stop-color:#2366E9"/>
			<stop  offset="0.1829" style="stop-color:#4C43E9"/>
			<stop  offset="0.2774" style="stop-color:#8512E9"/>
			<stop  offset="0.3091" style="stop-color:#9A00E9"/>
			<stop  offset="0.5053" style="stop-color:#FF2A48"/>
			<stop  offset="0.6985" style="stop-color:#FFBE2A"/>
			<stop  offset="1" style="stop-color:#00FF74"/>
		</linearGradient>
		<path fill="url(#SVGID_1_)" d="M103,356.3c-13.8,0-26.4-1.9-37.5-5.7c-11.1-3.8-20.6-9.3-28.3-16.5c-7.7-7.1-13.6-16-17.5-26.5
			C16,297.5,14.5,286,15.2,273h3.3c-0.7,12,0.7,23.5,4.2,33.2c3.7,10.3,9.4,19,16.9,26c7.4,7,16.7,12.3,27.6,15.8
			c10.8,3.6,22.9,5.4,35.9,5.4c10.1,0,19.9-1.4,29.3-4.3c9.4-2.8,17.8-7.2,25-12.9c7.2-5.7,13.1-12.8,17.4-21.2
			c4.4-8.4,6.6-18.2,6.6-29.1c0-10.9-1.8-20.3-5.5-28.1c-3.6-7.8-8.9-14.3-15.5-19.3c-6.6-5-14.4-8.7-23.2-11.2
			c-8.7-2.4-18.7-3.9-28.9-4.4l-16.2,0V220h16.5c8.1,0,16.3-1.1,24.2-2.9c8.1-1.9,15.4-5.1,21.9-9.5c6.5-4.4,11.9-10.3,15.9-17.4
			c4-7.2,6.1-16.1,6.1-26.6c-0.3-10.3-2.5-19.1-6.8-26.1c-4.3-7-9.9-12.8-16.6-17.2c-6.7-4.4-14.4-7.5-22.8-9.4
			c-8.3-1.8-17-2.8-25.9-2.8c-12,0-23,1.6-32.8,4.6c-9.8,3.1-18.3,7.9-25.3,14.2c-7,6.4-12.4,14.4-16,23.9
			c-3.4,8.9-5.1,19.1-5.1,31.1h-3.3c0-13,1.8-23.5,5.3-32.8c3.7-9.7,9.3-18,16.4-24.5c7.1-6.5,15.9-11.5,26.1-14.8
			c10.3-3.3,21.9-5,34.4-5c9.7,0,19.2,1.1,28.2,3.2c8.9,2.1,17,5.6,24.1,10.3c7,4.6,12.6,10.8,16.8,18.2c4.2,7.4,6.3,16.5,6.3,27
			c0,16.8-4.9,30-14.5,39.2c-9.7,9.3-22.1,16.5-36.8,17.9l-7,0.6l3.1,0.4l3.9,1c7,0.7,14.1,3.3,20.8,6.1c6.6,2.7,12.6,6.6,17.8,11.6
			c5.2,5,9.4,11.3,12.6,18.8c3.1,7.5,4.7,16.5,4.7,26.8c0,11.3-2.2,21.3-6.5,30c-4.3,8.7-10.3,16.1-17.6,22
			c-7.4,6-16.1,10.6-25.9,13.6C124.8,354.7,114.2,356.3,103,356.3z"/>
		<linearGradient id="SVGID_2_" gradientUnits="userSpaceOnUse" x1="292.7595" y1="356.2715" x2="292.7595" y2="104.8862">
			<stop  offset="0" style="stop-color:#0084E9"/>
			<stop  offset="3.824052e-02" style="stop-color:#097CE9"/>
			<stop  offset="0.1018" style="stop-color:#2366E9"/>
			<stop  offset="0.1829" style="stop-color:#4C43E9"/>
			<stop  offset="0.2774" style="stop-color:#8512E9"/>
			<stop  offset="0.3091" style="stop-color:#9A00E9"/>
			<stop  offset="0.5053" style="stop-color:#FF2A48"/>
			<stop  offset="0.6985" style="stop-color:#FFBE2A"/>
			<stop  offset="1" style="stop-color:#00FF74"/>
		</linearGradient>
		<path fill="url(#SVGID_2_)" d="M292.8,356.3c-17.2,0-31.8-3.6-43.5-10.8c-11.7-7.2-21.2-16.8-28.2-28.6
			c-7.1-11.9-12.2-25.5-15.2-40.4c-3-15-4.5-30.4-4.5-45.7c0-15.3,1.5-30.7,4.5-45.7c3-15,8.1-28.5,15.2-40.4
			c7.1-11.8,16.6-21.5,28.2-28.8c11.6-7.3,26.2-11,43.4-11c17.4,0,32.1,3.7,43.6,11c11.5,7.3,21,17,28.1,28.8
			c7.1,11.9,12.2,25.4,15.2,40.4c3,15.1,4.5,30.5,4.5,45.7c0,15.3-1.5,30.7-4.5,45.7c-3,15-8.1,28.6-15.2,40.4
			c-7.1,11.8-16.5,21.4-28,28.6C324.9,352.6,310.2,356.3,292.8,356.3z M292.8,108.2c-17.3,0-31.8,3.8-43.1,11.4
			c-11.2,7.5-20.3,17.4-27,29.2c-6.6,11.8-11.3,25.1-14,39.5c-2.7,14.3-4,28.6-4,42.5c0,13.9,1.4,28.2,4,42.5
			c2.7,14.4,7.4,27.7,14,39.5c6.7,11.9,15.7,21.7,27,29.2c11.3,7.6,25.8,11.4,43.1,11.4c17.3,0,31.8-3.8,43.1-11.4
			c11.2-7.5,20.3-17.4,27-29.2c6.6-11.8,11.3-25,14-39.5c2.7-14.4,3.2-28.7,4-42.5c0.8-13.2-0.9-27.8-4-42.5
			c-3-14.4-7.4-27.7-14-39.5c-6.7-11.8-15.7-21.7-27-29.2C324.5,112,310,108.2,292.8,108.2z"/>
	</g>
</g>
<g id="レイヤー_1">
	<g>
		<path fill="#FFFFFF" d="M197.8,58.7c-2.6-0.6-3.6,0.6-3.7,1.2c-0.1,0.7,1.7,0.5,2.4,1.8c0.7,1.2-1.3,5.8-2.4,8
			c-1.1,2.2-5.1,5.6-5.1,5.6s2.3-8.3,3.1-11.8c0.8-3.6-1.3-4.5-3.8-4.2c-3.4,0.4-4.1,1.2-5.2,2.3c-1.2,1.2-2.6,3.4-2,4.5
			c0.6,1.1,1.8,0.6,2.3-0.4c0.4-1,1-2.6,1.8-2c0.7,0.5,0,2.7-0.7,6.9c-0.7,4.2-2,10.3-2,10.5c0,0.2-3.5,3-6.8,5.1
			c-3.4,2.2-12.4,6.8-13.9,6.8c-1.5,0.1-1.7-0.7-1.5-2c0.1-1.3-0.5-2-1.5-2.2c-1-0.2-2,0.4-2.5,1.2c-0.4,0.8-1.1,4.4,5.7,4.2
			c2.6-0.1,7.2-2.4,10.6-4.2c5.7-3,10.7-6.6,15-10.4c7-6.1,10.8-14,11.3-15.8C199.3,62.1,200.5,59.3,197.8,58.7z"/>
		<path fill="#FFFFFF" d="M273.1,13.9c-16.7,0-27.6,2.2-45.6,10.3C206.1,33.7,181.3,58,181.3,58s-1.2-2.2-0.6-11.2
			c0.5-7.6,3.3-22.4,3.3-22.4s-18.3,32-29.3,42.3c-14.5,13.6-18.7,14.8-24.9,17.5c-10.1,4.5-21.1,4.9-24.6,1.4
			c-2.7-2.7-2.3-7-0.4-11c7.8-17,32-27.5,32-27.5s-16,6.7-23.6,12.8c-9.1,7.4-12.4,13.4-13.9,17.3c-1.2,3.3-1.6,11.5,5.8,14.2
			c12.4,4.5,30.5-7.6,38.8-13.3c9.9-6.8,25.5-25.1,25.5-25.1L169,81.2c0,0,5.9-12.3,13-20.1c6.2-6.9,26.2-25.7,46.3-33.9
			c13.6-5.5,27-8.2,37.5-8.2c17,0,27.1,3.7,29.5,10.4c2.3,6.2-1.5,12.5-7.7,17.8c-8.9,7.6-20.5,15.1-20.5,15.1s-1.2-3.4-6.7-3.4
			c-2.4,0-4.5,0.2-7.5,1.6c-2.9,1.4-11.4,7.7-14.1,9.3c-2.7,1.6-0.3-1.7,2-5.5c2.7-4.6,0.3-6.5-3.9-6.4c-3.7,0-5,1.8-5,1.8l6.3-10.2
			c0,0,3-2.3,6.2-6.3c3.2-4,4.9-7.5,2.9-8c-2.1-0.5-6.9,5-9.2,7.5c-2.3,2.5-6.8,9.3-6.8,9.3l-12.3,9.6c0,0-0.8-2.8-4.8-2.9
			c-5.2-0.2-10.3,1.3-14.8,7.9c-4.2,6.4-0.8,10.4,3.4,10.5c5,0.1,10.6-1.4,14.3-7.1c3-4.5,2.1-7.3,2.1-7.3l10.3-8.2l-14.4,22.4h6.2
			c0,0,0.8-1.9,4.2-7.1c2.7-4.3,5-6.8,8.1-6.8c3.1,0-0.1,3.4-1.8,6.3c-2.6,4.4-4.6,7.7-2,7.7c2.6,0,3.9-0.9,6.9-3.1
			c2.9-2.2,12.9-10.5,12.9-10.5s-2,1.3-3.8,4.8c-2.5,4.9,0.2,8.9,4.8,8.9s9.9-0.7,14.3-6.6c3.5-4.7,2.6-7.5,2.6-7.5
			s31.9-17,33.1-29.8C301.6,21.4,289.8,13.9,273.1,13.9z M242,43c1.1-1.2,2.5-3.2,2.9-2.9c0.4,0.4-0.7,1.8-2,3.5
			c-1.7,2.2-4.3,4.4-4.3,4.4S241,44.2,242,43z M211.7,68c-2.1,3.2-5.3,5.8-7.2,5.8c-1.9,0-1.8-2.6,0.3-5.8c2.1-3.2,5.3-5.8,7.2-5.8
			C213.8,62.3,213.7,64.9,211.7,68z M259.2,68c-2.1,3.2-5.3,5.8-7.2,5.8c-1.9,0-1.8-2.6,0.3-5.8c2.1-3.2,5.3-5.8,7.2-5.8
			C261.4,62.3,261.2,64.9,259.2,68z"/>
	</g>
</g>
<g id="レイヤー_3">
</g>
</svg>
