<?xml version="1.0" encoding="utf-8"?>
<!-- Generator: Adobe Illustrator 16.2.1, SVG Export Plug-In . SVG Version: 6.00 Build 0)  -->
<!DOCTYPE svg PUBLIC "-//W3C//DTD SVG 1.1//EN" "http://www.w3.org/Graphics/SVG/1.1/DTD/svg11.dtd">
<svg version="1.1" id="レイヤー_1" xmlns="http://www.w3.org/2000/svg" xmlns:xlink="http://www.w3.org/1999/xlink" x="0px"
	 y="0px" width="800px" height="382.144px" viewBox="0 0 800 382.144" enable-background="new 0 0 800 382.144"
	 xml:space="preserve">
<g>
	<path fill="#FFFFFF" d="M391.81,200.219c-10.078-2.24-13.715,2.241-14.282,4.759c-0.554,2.523,6.446,1.964,9.247,6.729
		c2.795,4.759-5.042,22.119-9.247,30.522c-4.198,8.397-19.601,21.564-19.601,21.564s8.681-31.648,11.765-45.37
		s-5.098-17.273-14.559-16.24c-12.885,1.398-15.747,4.556-19.952,8.748c-4.667,4.642-10.017,13.095-7.775,17.298
		c2.241,4.2,6.999,2.235,8.68-1.402c1.681-3.638,3.921-9.807,6.722-7.844c2.801,1.959,0,10.361-2.524,26.607
		c-2.518,16.239-7.695,39.417-7.695,40.255c0,0.843-13.34,11.548-25.942,19.638c-13.175,8.452-47.365,25.867-53.244,26.151
		c-5.879,0.277-6.372-2.592-5.812-7.634c0.561-5.042-2.012-7.479-5.601-8.397c-3.639-0.941-7.837,1.675-9.524,4.759
		c-1.675,3.078-4.199,16.8,21.842,16.24c9.77-0.209,27.474-9.167,40.679-16.098c22.015-11.562,40.815-25.204,57.622-39.91
		c26.884-23.522,41.442-53.49,43.13-60.49C397.412,213.104,401.897,202.46,391.81,200.219z"/>
	<path fill="#FFFFFF" d="M679.98,28.87c-63.852,0-105.701,8.421-174.723,39.257c-81.938,36.598-176.966,129.506-176.966,129.506
		s-4.531-8.323-2.425-43.062c1.754-29.039,12.596-85.693,12.596-85.693s-70.143,122.66-112.152,162.146
		c-55.38,52.056-71.78,56.648-95.309,67.139C92.353,315.382,50.294,317,36.855,303.697c-10.508-10.404-8.76-26.656-1.681-42.146
		c29.685-64.971,122.661-105.293,122.661-105.293s-61.42,25.818-90.316,49.144c-34.862,28.146-47.605,51.472-53.084,66.406
		c-4.623,12.602-6.144,44.071,22.088,54.272c47.574,17.181,116.756-29.001,148.614-50.948
		c37.811-26.046,97.463-96.244,97.463-96.244l-1.268,107.583c0,0,22.691-47.044,49.599-76.846
		c23.775-26.336,100.157-98.522,177.417-129.869C560.553,58.58,611.697,48.25,651.847,48.268
		c65.106,0.031,103.681,14.289,113.124,39.935c8.718,23.621-5.811,47.833-29.4,68.056c-34.056,29.186-78.417,57.965-78.417,57.965
		s-4.457-13.074-25.474-13.025c-9.209,0.024-17.139,0.727-28.848,6.31c-11.154,5.312-43.549,29.464-54.051,35.761
		c-10.502,6.304-1.021-6.421,7.561-21.202c10.194-17.55,1.316-24.766-14.984-24.648c-14.307,0.104-19.108,6.722-19.108,6.722
		l24.119-39.017c0,0,11.376-8.865,23.554-23.991c12.189-15.125,18.911-28.564,10.92-30.664
		c-7.979-2.105-26.459,19.318-35.286,28.891c-8.816,9.567-26.04,35.798-26.04,35.798l-47.255,36.758c0,0-3.016-10.577-18.48-11.137
		c-19.736-0.714-39.608,4.845-56.503,30.251c-16.203,24.359-2.943,39.973,13.016,40.323c19.331,0.424,40.681-5.461,54.84-27.192
		c11.314-17.36,8.175-28.047,8.175-28.047l39.485-31.298l-55.023,85.816h23.8c0,0,3.237-7.208,16.104-27.364
		c10.514-16.468,19.108-26.107,30.879-26.107c11.759,0-0.271,12.829-6.932,23.946c-10.084,16.801-17.643,29.525-7.56,29.525
		c10.071,0,14.996-3.603,26.236-12.004c11.242-8.403,49.262-40.15,49.262-40.15s-7.769,5.141-14.381,18.222
		c-9.455,18.689,0.628,33.933,18.271,33.933s37.799-2.519,54.777-25.326c13.481-18.105,10.047-28.564,10.047-28.564
		s122.1-64.966,126.581-114.257C788.968,57.317,743.831,28.87,679.98,28.87z M560.995,140.185
		c4.038-4.482,9.678-12.208,11.131-11.026c1.687,1.367-2.722,6.852-7.658,13.235c-6.514,8.397-16.486,16.905-16.486,16.905
		S556.957,144.667,560.995,140.185z M444.707,236.072c-7.904,12.177-20.241,22.052-27.555,22.052c-7.302,0-6.821-9.875,1.096-22.052
		c7.904-12.184,20.24-22.058,27.554-22.058C453.104,214.015,452.623,223.889,444.707,236.072z M626.631,236.072
		c-7.903,12.177-20.24,22.052-27.554,22.052c-7.301,0-6.82-9.875,1.096-22.052c7.904-12.184,20.241-22.058,27.555-22.058
		C635.028,214.015,634.549,223.889,626.631,236.072z"/>
</g>
</svg>
